<?xml version="1.0" standalone="no"?><!DOCTYPE svg PUBLIC "-//W3C//DTD SVG 1.1//EN" "http://www.w3.org/Graphics/SVG/1.1/DTD/svg11.dtd"><svg t="1686536539523" class="icon" viewBox="0 0 1024 1024" version="1.1" xmlns="http://www.w3.org/2000/svg" p-id="2426" xmlns:xlink="http://www.w3.org/1999/xlink" width="256" height="256"><path d="M634.188 317.997h228.647v67.779H634.188zM67.779 885.859V544.381l316.945-0.457V318.48h-67.777v158.177H67.779V135.503c0-37.349 30.402-67.724 67.778-67.724h441.354V0H135.557C60.993 0 0 60.993 0 135.503v750.356c0 74.511 60.993 135.503 135.557 135.503h213.325v-67.725H135.557c-37.376 0.001-67.778-30.454-67.778-67.778" fill="#515151" p-id="2427"></path><path d="M885.887 0H670.676v67.779h125.082v91.61H172.207v0.269h-14.73v224.07h67.725V227.113h251.241v408.151H157.638v67.725l386.583-0.538V227.113h318.67l0.592-159.334h22.404c37.323 0 67.778 30.402 67.778 67.724v341.1H636.343v0.781h-0.351v316.489H156.696v67.778l706.517-0.055V636.152h-67.725v157.721h-91.771V544.381h249.948V885.86c0 37.35-30.455 67.725-67.778 67.725H442.029v67.778h443.858c74.509 0 135.502-60.992 135.502-135.503V135.503C1021.389 60.993 960.396 0 885.887 0" fill="#515151" p-id="2428"></path></svg>